<mxfile host="app.diagrams.net" modified="2023-07-03T06:00:43.928Z" agent="Mozilla/5.0 (Windows NT 10.0; Win64; x64) AppleWebKit/537.36 (KHTML, like Gecko) Chrome/114.0.0.0 Safari/537.36" etag="n8dcmRzTRvqnFz6-J56A" version="21.5.2" type="github">
  <diagram name="페이지-1" id="qjko9GQbYzi4dv4aS_Vg">
    <mxGraphModel dx="3388" dy="838" grid="1" gridSize="10" guides="1" tooltips="1" connect="1" arrows="1" fold="1" page="1" pageScale="1" pageWidth="827" pageHeight="1169" math="0" shadow="0">
      <root>
        <mxCell id="0" />
        <mxCell id="1" parent="0" />
        <mxCell id="20aFcJe1FkNS2ckluplD-59" style="edgeStyle=orthogonalEdgeStyle;rounded=0;orthogonalLoop=1;jettySize=auto;html=1;exitX=0.5;exitY=0;exitDx=0;exitDy=0;dashed=1;endArrow=block;endFill=0;" parent="1" source="hD7H4eB_J3QczMmHOgrV-2" target="20aFcJe1FkNS2ckluplD-28" edge="1">
          <mxGeometry relative="1" as="geometry">
            <mxPoint x="290" y="330" as="sourcePoint" />
          </mxGeometry>
        </mxCell>
        <mxCell id="g_AJwJvJLbkHC5g1WmJB-2" style="edgeStyle=orthogonalEdgeStyle;rounded=0;orthogonalLoop=1;jettySize=auto;html=1;exitX=0.5;exitY=0;exitDx=0;exitDy=0;entryX=1;entryY=0.5;entryDx=0;entryDy=0;" parent="1" source="20aFcJe1FkNS2ckluplD-9" target="20aFcJe1FkNS2ckluplD-28" edge="1">
          <mxGeometry relative="1" as="geometry" />
        </mxCell>
        <mxCell id="20aFcJe1FkNS2ckluplD-9" value="&lt;b&gt;MultiRoomContext&lt;/b&gt;" style="swimlane;fontStyle=0;childLayout=stackLayout;horizontal=1;startSize=30;horizontalStack=0;resizeParent=1;resizeParentMax=0;resizeLast=0;collapsible=1;marginBottom=0;whiteSpace=wrap;html=1;" parent="1" vertex="1">
          <mxGeometry x="580" y="660" width="270" height="90" as="geometry">
            <mxRectangle x="299" y="80" width="110" height="30" as="alternateBounds" />
          </mxGeometry>
        </mxCell>
        <mxCell id="20aFcJe1FkNS2ckluplD-10" value="+ PresetModel:&amp;nbsp;VariableSpacePresetModel&lt;br&gt;" style="text;strokeColor=none;fillColor=none;align=left;verticalAlign=middle;spacingLeft=4;spacingRight=4;overflow=hidden;points=[[0,0.5],[1,0.5]];portConstraint=eastwest;rotatable=0;whiteSpace=wrap;html=1;" parent="20aFcJe1FkNS2ckluplD-9" vertex="1">
          <mxGeometry y="30" width="270" height="30" as="geometry" />
        </mxCell>
        <mxCell id="20aFcJe1FkNS2ckluplD-68" value="+&amp;nbsp;PrefabModel&lt;span style=&quot;background-color: initial;&quot;&gt;&amp;nbsp;: MultiRoomPrefabModel&amp;nbsp;&lt;/span&gt;" style="text;strokeColor=none;fillColor=none;align=left;verticalAlign=middle;spacingLeft=4;spacingRight=4;overflow=hidden;points=[[0,0.5],[1,0.5]];portConstraint=eastwest;rotatable=0;whiteSpace=wrap;html=1;" parent="20aFcJe1FkNS2ckluplD-9" vertex="1">
          <mxGeometry y="60" width="270" height="30" as="geometry" />
        </mxCell>
        <mxCell id="20aFcJe1FkNS2ckluplD-35" style="edgeStyle=orthogonalEdgeStyle;rounded=0;orthogonalLoop=1;jettySize=auto;html=1;exitX=0.5;exitY=0;exitDx=0;exitDy=0;entryX=0.5;entryY=1;entryDx=0;entryDy=0;" parent="1" source="20aFcJe1FkNS2ckluplD-28" target="20aFcJe1FkNS2ckluplD-32" edge="1">
          <mxGeometry relative="1" as="geometry" />
        </mxCell>
        <mxCell id="20aFcJe1FkNS2ckluplD-36" style="edgeStyle=orthogonalEdgeStyle;rounded=0;orthogonalLoop=1;jettySize=auto;html=1;exitX=0.5;exitY=0;exitDx=0;exitDy=0;dashed=1;endArrow=block;endFill=0;" parent="1" source="20aFcJe1FkNS2ckluplD-28" target="20aFcJe1FkNS2ckluplD-39" edge="1">
          <mxGeometry relative="1" as="geometry">
            <mxPoint x="520.96" y="117.01999999999998" as="targetPoint" />
          </mxGeometry>
        </mxCell>
        <mxCell id="20aFcJe1FkNS2ckluplD-28" value="&lt;b&gt;LifetimeScope&lt;/b&gt;" style="swimlane;fontStyle=0;childLayout=stackLayout;horizontal=1;startSize=30;horizontalStack=0;resizeParent=1;resizeParentMax=0;resizeLast=0;collapsible=1;marginBottom=0;whiteSpace=wrap;html=1;" parent="1" vertex="1">
          <mxGeometry x="344" y="160" width="140" height="80" as="geometry" />
        </mxCell>
        <mxCell id="20aFcJe1FkNS2ckluplD-32" value="&lt;b&gt;MonoBehaviour&lt;/b&gt;" style="rounded=0;whiteSpace=wrap;html=1;" parent="1" vertex="1">
          <mxGeometry x="270" y="50" width="120" height="60" as="geometry" />
        </mxCell>
        <mxCell id="20aFcJe1FkNS2ckluplD-39" value="&lt;b style=&quot;border-color: var(--border-color);&quot;&gt;&amp;lt;&amp;lt;&lt;i style=&quot;border-color: var(--border-color);&quot;&gt;interface&lt;/i&gt;&amp;gt;&amp;gt;&lt;br style=&quot;border-color: var(--border-color);&quot;&gt;IDisposable&lt;/b&gt;" style="swimlane;fontStyle=0;childLayout=stackLayout;horizontal=1;startSize=30;horizontalStack=0;resizeParent=1;resizeParentMax=0;resizeLast=0;collapsible=1;marginBottom=0;whiteSpace=wrap;html=1;" parent="1" vertex="1">
          <mxGeometry x="450" y="50" width="140" height="60" as="geometry" />
        </mxCell>
        <mxCell id="20aFcJe1FkNS2ckluplD-40" value="- Dispose : void" style="text;strokeColor=none;fillColor=none;align=left;verticalAlign=middle;spacingLeft=4;spacingRight=4;overflow=hidden;points=[[0,0.5],[1,0.5]];portConstraint=eastwest;rotatable=0;whiteSpace=wrap;html=1;" parent="20aFcJe1FkNS2ckluplD-39" vertex="1">
          <mxGeometry y="30" width="140" height="30" as="geometry" />
        </mxCell>
        <mxCell id="20aFcJe1FkNS2ckluplD-56" style="edgeStyle=orthogonalEdgeStyle;rounded=0;orthogonalLoop=1;jettySize=auto;html=1;exitX=0.5;exitY=0;exitDx=0;exitDy=0;" parent="1" source="20aFcJe1FkNS2ckluplD-46" target="20aFcJe1FkNS2ckluplD-50" edge="1">
          <mxGeometry relative="1" as="geometry" />
        </mxCell>
        <mxCell id="20aFcJe1FkNS2ckluplD-46" value="&lt;b&gt;&amp;nbsp;VariableSpacePresetModel&lt;/b&gt;" style="swimlane;fontStyle=0;childLayout=stackLayout;horizontal=1;startSize=30;horizontalStack=0;resizeParent=1;resizeParentMax=0;resizeLast=0;collapsible=1;marginBottom=0;whiteSpace=wrap;html=1;" parent="1" vertex="1">
          <mxGeometry x="1190" y="180" width="230" height="90" as="geometry" />
        </mxCell>
        <mxCell id="20aFcJe1FkNS2ckluplD-47" value="+ MissionList : JArray" style="text;strokeColor=none;fillColor=none;align=left;verticalAlign=middle;spacingLeft=4;spacingRight=4;overflow=hidden;points=[[0,0.5],[1,0.5]];portConstraint=eastwest;rotatable=0;whiteSpace=wrap;html=1;" parent="20aFcJe1FkNS2ckluplD-46" vertex="1">
          <mxGeometry y="30" width="230" height="30" as="geometry" />
        </mxCell>
        <mxCell id="20aFcJe1FkNS2ckluplD-48" value="+ ButtonList : JArray" style="text;strokeColor=none;fillColor=none;align=left;verticalAlign=middle;spacingLeft=4;spacingRight=4;overflow=hidden;points=[[0,0.5],[1,0.5]];portConstraint=eastwest;rotatable=0;whiteSpace=wrap;html=1;" parent="20aFcJe1FkNS2ckluplD-46" vertex="1">
          <mxGeometry y="60" width="230" height="30" as="geometry" />
        </mxCell>
        <mxCell id="20aFcJe1FkNS2ckluplD-50" value="&lt;b&gt;&amp;nbsp;JsonPresetModel&lt;/b&gt;" style="swimlane;fontStyle=0;childLayout=stackLayout;horizontal=1;startSize=30;horizontalStack=0;resizeParent=1;resizeParentMax=0;resizeLast=0;collapsible=1;marginBottom=0;whiteSpace=wrap;html=1;" parent="1" vertex="1">
          <mxGeometry x="1190" y="10" width="230" height="90" as="geometry" />
        </mxCell>
        <mxCell id="20aFcJe1FkNS2ckluplD-51" value="- jsons : TextAsset" style="text;strokeColor=none;fillColor=none;align=left;verticalAlign=middle;spacingLeft=4;spacingRight=4;overflow=hidden;points=[[0,0.5],[1,0.5]];portConstraint=eastwest;rotatable=0;whiteSpace=wrap;html=1;" parent="20aFcJe1FkNS2ckluplD-50" vertex="1">
          <mxGeometry y="30" width="230" height="30" as="geometry" />
        </mxCell>
        <mxCell id="20aFcJe1FkNS2ckluplD-52" value="+ Initialize() : void" style="text;strokeColor=default;fillColor=none;align=left;verticalAlign=middle;spacingLeft=4;spacingRight=4;overflow=hidden;points=[[0,0.5],[1,0.5]];portConstraint=eastwest;rotatable=0;whiteSpace=wrap;html=1;" parent="20aFcJe1FkNS2ckluplD-50" vertex="1">
          <mxGeometry y="60" width="230" height="30" as="geometry" />
        </mxCell>
        <mxCell id="20aFcJe1FkNS2ckluplD-63" value="&lt;b&gt;MultiRoomPrefabModel&lt;/b&gt;" style="swimlane;fontStyle=0;childLayout=stackLayout;horizontal=1;startSize=26;fillColor=none;horizontalStack=0;resizeParent=1;resizeParentMax=0;resizeLast=0;collapsible=1;marginBottom=0;whiteSpace=wrap;html=1;" parent="1" vertex="1">
          <mxGeometry x="800" y="180" width="360" height="126" as="geometry" />
        </mxCell>
        <mxCell id="20aFcJe1FkNS2ckluplD-64" value="+&amp;nbsp;RoomButtonPrefab: GameObject {SerializeField}" style="text;strokeColor=none;fillColor=none;align=left;verticalAlign=top;spacingLeft=4;spacingRight=4;overflow=hidden;rotatable=0;points=[[0,0.5],[1,0.5]];portConstraint=eastwest;whiteSpace=wrap;html=1;" parent="20aFcJe1FkNS2ckluplD-63" vertex="1">
          <mxGeometry y="26" width="360" height="22" as="geometry" />
        </mxCell>
        <mxCell id="20aFcJe1FkNS2ckluplD-65" value="+&amp;nbsp;ContentImagePrefab&lt;span style=&quot;background-color: initial;&quot;&gt;: GameObject&amp;nbsp;&lt;/span&gt;{SerializeField}" style="text;strokeColor=none;fillColor=none;align=left;verticalAlign=top;spacingLeft=4;spacingRight=4;overflow=hidden;rotatable=0;points=[[0,0.5],[1,0.5]];portConstraint=eastwest;whiteSpace=wrap;html=1;" parent="20aFcJe1FkNS2ckluplD-63" vertex="1">
          <mxGeometry y="48" width="360" height="26" as="geometry" />
        </mxCell>
        <mxCell id="20aFcJe1FkNS2ckluplD-66" value="+ ContentSeparatorImagePrefab&lt;span style=&quot;background-color: initial;&quot;&gt;: GameObject&amp;nbsp;&lt;/span&gt;{SerializeField}" style="text;strokeColor=none;fillColor=none;align=left;verticalAlign=top;spacingLeft=4;spacingRight=4;overflow=hidden;rotatable=0;points=[[0,0.5],[1,0.5]];portConstraint=eastwest;whiteSpace=wrap;html=1;" parent="20aFcJe1FkNS2ckluplD-63" vertex="1">
          <mxGeometry y="74" width="360" height="26" as="geometry" />
        </mxCell>
        <mxCell id="20aFcJe1FkNS2ckluplD-67" value="+&amp;nbsp;PlayerSpacePrefab&lt;span style=&quot;background-color: initial;&quot;&gt;: GameObject&amp;nbsp;&lt;/span&gt;{SerializeField}" style="text;strokeColor=none;fillColor=none;align=left;verticalAlign=top;spacingLeft=4;spacingRight=4;overflow=hidden;rotatable=0;points=[[0,0.5],[1,0.5]];portConstraint=eastwest;whiteSpace=wrap;html=1;" parent="20aFcJe1FkNS2ckluplD-63" vertex="1">
          <mxGeometry y="100" width="360" height="26" as="geometry" />
        </mxCell>
        <mxCell id="20aFcJe1FkNS2ckluplD-78" style="edgeStyle=orthogonalEdgeStyle;rounded=0;orthogonalLoop=1;jettySize=auto;html=1;exitX=0.5;exitY=0;exitDx=0;exitDy=0;entryX=0.5;entryY=1;entryDx=0;entryDy=0;" parent="1" source="20aFcJe1FkNS2ckluplD-92" target="hD7H4eB_J3QczMmHOgrV-6" edge="1">
          <mxGeometry relative="1" as="geometry">
            <mxPoint x="414" y="650" as="sourcePoint" />
            <mxPoint x="480" y="850" as="targetPoint" />
          </mxGeometry>
        </mxCell>
        <mxCell id="20aFcJe1FkNS2ckluplD-88" style="edgeStyle=orthogonalEdgeStyle;rounded=0;orthogonalLoop=1;jettySize=auto;html=1;entryX=0.5;entryY=1;entryDx=0;entryDy=0;exitX=0;exitY=0.5;exitDx=0;exitDy=0;" parent="1" source="20aFcJe1FkNS2ckluplD-92" target="20aFcJe1FkNS2ckluplD-79" edge="1">
          <mxGeometry relative="1" as="geometry">
            <mxPoint x="264" y="686" as="sourcePoint" />
          </mxGeometry>
        </mxCell>
        <mxCell id="20aFcJe1FkNS2ckluplD-90" style="edgeStyle=orthogonalEdgeStyle;rounded=0;orthogonalLoop=1;jettySize=auto;html=1;exitX=0;exitY=0.5;exitDx=0;exitDy=0;entryX=0.5;entryY=0;entryDx=0;entryDy=0;" parent="1" source="20aFcJe1FkNS2ckluplD-92" target="20aFcJe1FkNS2ckluplD-80" edge="1">
          <mxGeometry relative="1" as="geometry">
            <mxPoint x="264" y="685.5" as="sourcePoint" />
          </mxGeometry>
        </mxCell>
        <mxCell id="20aFcJe1FkNS2ckluplD-79" value="&lt;p style=&quot;margin:0px;margin-top:4px;text-align:center;&quot;&gt;&lt;b&gt;UIModel&lt;/b&gt;&lt;/p&gt;&lt;hr size=&quot;1&quot;&gt;&lt;p style=&quot;margin:0px;margin-left:4px;&quot;&gt;&lt;/p&gt;&lt;p style=&quot;margin:0px;margin-left:4px;&quot;&gt;+ isEmptyRoom : BoolReactiveProperty&lt;/p&gt;&lt;p style=&quot;border-color: var(--border-color); margin: 0px 0px 0px 4px;&quot;&gt;+&amp;nbsp;CurrentRoomIndex&amp;nbsp;&lt;span style=&quot;background-color: initial;&quot;&gt;: IntReactiveProperty&lt;/span&gt;&lt;/p&gt;&lt;p style=&quot;border-color: var(--border-color); margin: 0px 0px 0px 4px;&quot;&gt;+&amp;nbsp;CurrentContentIndex&amp;nbsp;&lt;span style=&quot;background-color: initial;&quot;&gt;: IntReactiveProperty&lt;/span&gt;&lt;/p&gt;&lt;p style=&quot;border-color: var(--border-color); margin: 0px 0px 0px 4px;&quot;&gt;&lt;br style=&quot;border-color: var(--border-color);&quot;&gt;&lt;/p&gt;&lt;p style=&quot;border-color: var(--border-color); margin: 0px 0px 0px 4px;&quot;&gt;&lt;br&gt;&lt;/p&gt;&lt;p style=&quot;margin:0px;margin-left:4px;&quot;&gt;&lt;br&gt;&lt;/p&gt;" style="verticalAlign=top;align=left;overflow=fill;fontSize=12;fontFamily=Helvetica;html=1;whiteSpace=wrap;" parent="1" vertex="1">
          <mxGeometry x="-150" y="740" width="300" height="80" as="geometry" />
        </mxCell>
        <mxCell id="20aFcJe1FkNS2ckluplD-94" style="edgeStyle=orthogonalEdgeStyle;rounded=0;orthogonalLoop=1;jettySize=auto;html=1;exitX=0.5;exitY=0;exitDx=0;exitDy=0;entryX=0;entryY=0.5;entryDx=0;entryDy=0;endArrow=circlePlus;endFill=0;" parent="1" source="20aFcJe1FkNS2ckluplD-80" target="20aFcJe1FkNS2ckluplD-92" edge="1">
          <mxGeometry relative="1" as="geometry" />
        </mxCell>
        <mxCell id="20aFcJe1FkNS2ckluplD-80" value="&lt;p style=&quot;margin:0px;margin-top:4px;text-align:center;&quot;&gt;&lt;b&gt;UIModel&lt;/b&gt;&lt;/p&gt;&lt;hr size=&quot;1&quot;&gt;&lt;p style=&quot;margin:0px;margin-left:4px;&quot;&gt;&lt;/p&gt;&lt;p style=&quot;margin:0px;margin-left:4px;&quot;&gt;+&amp;nbsp;RoomButton : Button&lt;/p&gt;&lt;p style=&quot;border-color: var(--border-color); margin: 0px 0px 0px 4px;&quot;&gt;+&amp;nbsp;ButtonFolder&amp;nbsp;&lt;span style=&quot;background-color: initial;&quot;&gt;:&amp;nbsp;&lt;/span&gt;Transform&lt;/p&gt;&lt;p style=&quot;border-color: var(--border-color); margin: 0px 0px 0px 4px;&quot;&gt;+&amp;nbsp;ContentFolder&amp;nbsp;&lt;span style=&quot;background-color: initial;&quot;&gt;:&amp;nbsp;Transform&lt;/span&gt;&lt;/p&gt;&lt;p style=&quot;border-color: var(--border-color); margin: 0px 0px 0px 4px;&quot;&gt;+&amp;nbsp;UndoButton&amp;nbsp;&lt;span style=&quot;background-color: initial;&quot;&gt;: Button&lt;/span&gt;&lt;/p&gt;&lt;p style=&quot;border-color: var(--border-color); margin: 0px 0px 0px 4px;&quot;&gt;+&amp;nbsp;ExitRoomButton&amp;nbsp;&lt;span style=&quot;background-color: initial;&quot;&gt;: Button&lt;/span&gt;&lt;/p&gt;&lt;p style=&quot;border-color: var(--border-color); margin: 0px 0px 0px 4px;&quot;&gt;+&amp;nbsp;BasicRoomInfo&lt;span style=&quot;background-color: initial;&quot;&gt;:&amp;nbsp;&lt;/span&gt;GameObject&lt;/p&gt;&lt;div style=&quot;border-color: var(--border-color);&quot;&gt;&lt;p style=&quot;border-color: var(--border-color); margin: 0px 0px 0px 4px;&quot;&gt;+&amp;nbsp;RoomInfo&lt;span style=&quot;background-color: initial;&quot;&gt;:&amp;nbsp;GameObject&lt;/span&gt;&lt;/p&gt;&lt;div style=&quot;border-color: var(--border-color);&quot;&gt;&lt;br style=&quot;border-color: var(--border-color);&quot;&gt;&lt;/div&gt;&lt;/div&gt;&lt;div style=&quot;border-color: var(--border-color);&quot;&gt;&lt;br style=&quot;border-color: var(--border-color);&quot;&gt;&lt;/div&gt;&lt;div&gt;&lt;br&gt;&lt;/div&gt;&lt;p style=&quot;border-color: var(--border-color); margin: 0px 0px 0px 4px;&quot;&gt;&lt;br style=&quot;border-color: var(--border-color);&quot;&gt;&lt;/p&gt;&lt;p style=&quot;margin:0px;margin-left:4px;&quot;&gt;&lt;br&gt;&lt;/p&gt;" style="verticalAlign=top;align=left;overflow=fill;fontSize=12;fontFamily=Helvetica;html=1;whiteSpace=wrap;" parent="1" vertex="1">
          <mxGeometry x="-150" y="930" width="300" height="140" as="geometry" />
        </mxCell>
        <mxCell id="g_AJwJvJLbkHC5g1WmJB-3" style="edgeStyle=orthogonalEdgeStyle;rounded=0;orthogonalLoop=1;jettySize=auto;html=1;exitX=0.5;exitY=0;exitDx=0;exitDy=0;" parent="1" source="20aFcJe1FkNS2ckluplD-92" target="20aFcJe1FkNS2ckluplD-9" edge="1">
          <mxGeometry relative="1" as="geometry" />
        </mxCell>
        <mxCell id="20aFcJe1FkNS2ckluplD-92" value="&lt;p style=&quot;margin:0px;margin-top:4px;text-align:center;&quot;&gt;&lt;b style=&quot;border-color: var(--border-color);&quot;&gt;MultiplayRoomLobbyPageContext&lt;/b&gt;&lt;br&gt;&lt;/p&gt;&lt;hr size=&quot;1&quot;&gt;&lt;p style=&quot;margin:0px;margin-left:4px;&quot;&gt;+ View : UIView&lt;br&gt;&lt;/p&gt;&lt;hr size=&quot;1&quot;&gt;&lt;p style=&quot;margin:0px;margin-left:4px;&quot;&gt;# Configure&lt;span style=&quot;background-color: initial;&quot;&gt;() : void&lt;/span&gt;&lt;/p&gt;&lt;p style=&quot;margin:0px;margin-left:4px;&quot;&gt;&lt;span style=&quot;background-color: initial;&quot;&gt;- UIModel : Bulder&lt;/span&gt;&lt;/p&gt;&lt;p style=&quot;margin:0px;margin-left:4px;&quot;&gt;&lt;span style=&quot;background-color: initial;&quot;&gt;-&amp;nbsp;&lt;/span&gt;MultiRoomListModel : Builder&lt;/p&gt;&lt;p style=&quot;margin:0px;margin-left:4px;&quot;&gt;- view : Builder&lt;/p&gt;&lt;p style=&quot;margin:0px;margin-left:4px;&quot;&gt;-&amp;nbsp;MultiplayRoomLobbyPagePresenter : EntryPoint&lt;/p&gt;" style="verticalAlign=top;align=left;overflow=fill;fontSize=12;fontFamily=Helvetica;html=1;whiteSpace=wrap;" parent="1" vertex="1">
          <mxGeometry x="264" y="805" width="300" height="135" as="geometry" />
        </mxCell>
        <mxCell id="20aFcJe1FkNS2ckluplD-97" style="edgeStyle=orthogonalEdgeStyle;rounded=0;orthogonalLoop=1;jettySize=auto;html=1;exitX=0.5;exitY=0;exitDx=0;exitDy=0;entryX=0.5;entryY=1;entryDx=0;entryDy=0;" parent="1" source="20aFcJe1FkNS2ckluplD-96" target="20aFcJe1FkNS2ckluplD-92" edge="1">
          <mxGeometry relative="1" as="geometry" />
        </mxCell>
        <mxCell id="hD7H4eB_J3QczMmHOgrV-18" style="edgeStyle=orthogonalEdgeStyle;rounded=0;orthogonalLoop=1;jettySize=auto;html=1;exitX=0.5;exitY=0;exitDx=0;exitDy=0;entryX=0.5;entryY=1;entryDx=0;entryDy=0;dashed=1;endArrow=block;endFill=0;" parent="1" source="20aFcJe1FkNS2ckluplD-96" target="hD7H4eB_J3QczMmHOgrV-16" edge="1">
          <mxGeometry relative="1" as="geometry" />
        </mxCell>
        <mxCell id="20aFcJe1FkNS2ckluplD-96" value="&lt;p style=&quot;margin:0px;margin-top:4px;text-align:center;&quot;&gt;&lt;b&gt;MultiplayRoomLobbyPagePresenter&lt;/b&gt;&lt;/p&gt;&lt;hr size=&quot;1&quot;&gt;&lt;p style=&quot;margin:0px;margin-left:4px;&quot;&gt;&lt;span style=&quot;background-color: initial;&quot;&gt;- View : MultiplayRoomLobbyPageContext.UIView {readonly}&lt;/span&gt;&lt;br&gt;&lt;/p&gt;&lt;p style=&quot;border-color: var(--border-color); margin: 0px 0px 0px 4px;&quot;&gt;- Model: MultiplayRoomLobbyPageContext.UIModel {readonly}&amp;nbsp;&amp;nbsp;&lt;/p&gt;&lt;p style=&quot;border-color: var(--border-color); margin: 0px 0px 0px 4px;&quot;&gt;- prefabModel : MultiRoomPrefabModel {readonly}&lt;/p&gt;&lt;p style=&quot;border-color: var(--border-color); margin: 0px 0px 0px 4px;&quot;&gt;- presetModel : VariableSpacePresetModel {readonly}&lt;/p&gt;&lt;p style=&quot;border-color: var(--border-color); margin: 0px 0px 0px 4px;&quot;&gt;&lt;span style=&quot;background-color: initial;&quot;&gt;- roomList : MulriRoomListModel {readonly}&lt;/span&gt;&lt;/p&gt;&lt;hr size=&quot;1&quot;&gt;&lt;p style=&quot;margin:0px;margin-left:4px;&quot;&gt;- IStartable.Start() : void&lt;/p&gt;&lt;p style=&quot;margin:0px;margin-left:4px;&quot;&gt;- InitializeView() : void&lt;/p&gt;&lt;p style=&quot;margin:0px;margin-left:4px;&quot;&gt;- ShowRoomInfo() : void&lt;/p&gt;&lt;p style=&quot;margin:0px;margin-left:4px;&quot;&gt;&lt;br&gt;&lt;/p&gt;&lt;p style=&quot;margin:0px;margin-left:4px;&quot;&gt;&lt;br&gt;&lt;/p&gt;&lt;p style=&quot;margin:0px;margin-left:4px;&quot;&gt;&lt;br&gt;&lt;/p&gt;&lt;p style=&quot;margin:0px;margin-left:4px;&quot;&gt;&lt;br&gt;&lt;/p&gt;" style="verticalAlign=top;align=left;overflow=fill;fontSize=12;fontFamily=Helvetica;html=1;whiteSpace=wrap;" parent="1" vertex="1">
          <mxGeometry x="178" y="1100" width="472" height="160" as="geometry" />
        </mxCell>
        <mxCell id="hD7H4eB_J3QczMmHOgrV-2" value="&lt;b&gt;&lt;i&gt;&amp;lt;&amp;lt;UIScope&amp;gt;&amp;gt;&lt;/i&gt;&lt;br&gt;&lt;/b&gt;" style="swimlane;fontStyle=0;childLayout=stackLayout;horizontal=1;startSize=30;horizontalStack=0;resizeParent=1;resizeParentMax=0;resizeLast=0;collapsible=1;marginBottom=0;whiteSpace=wrap;html=1;" parent="1" vertex="1">
          <mxGeometry x="316" y="420" width="196" height="80" as="geometry" />
        </mxCell>
        <mxCell id="g_AJwJvJLbkHC5g1WmJB-17" style="edgeStyle=orthogonalEdgeStyle;rounded=0;orthogonalLoop=1;jettySize=auto;html=1;exitX=0.5;exitY=0;exitDx=0;exitDy=0;entryX=0;entryY=0.5;entryDx=0;entryDy=0;dashed=1;" parent="1" source="hD7H4eB_J3QczMmHOgrV-5" target="hD7H4eB_J3QczMmHOgrV-2" edge="1">
          <mxGeometry relative="1" as="geometry" />
        </mxCell>
        <mxCell id="hD7H4eB_J3QczMmHOgrV-5" value="&lt;b&gt;&lt;i&gt;&amp;lt;&amp;lt;Sheet&amp;gt;&amp;gt;&lt;/i&gt;&lt;br&gt;&lt;/b&gt;" style="swimlane;fontStyle=0;childLayout=stackLayout;horizontal=1;startSize=30;horizontalStack=0;resizeParent=1;resizeParentMax=0;resizeLast=0;collapsible=1;marginBottom=0;whiteSpace=wrap;html=1;" parent="1" vertex="1">
          <mxGeometry x="-870" y="550" width="196" height="80" as="geometry" />
        </mxCell>
        <mxCell id="hD7H4eB_J3QczMmHOgrV-15" style="edgeStyle=orthogonalEdgeStyle;rounded=0;orthogonalLoop=1;jettySize=auto;html=1;exitX=0.5;exitY=0;exitDx=0;exitDy=0;dashed=1;endArrow=block;endFill=0;" parent="1" source="hD7H4eB_J3QczMmHOgrV-6" target="hD7H4eB_J3QczMmHOgrV-2" edge="1">
          <mxGeometry relative="1" as="geometry" />
        </mxCell>
        <mxCell id="hD7H4eB_J3QczMmHOgrV-6" value="&lt;b&gt;&lt;i&gt;&amp;lt;&amp;lt;Page&amp;gt;&amp;gt;&lt;/i&gt;&lt;br&gt;&lt;/b&gt;" style="swimlane;fontStyle=0;childLayout=stackLayout;horizontal=1;startSize=30;horizontalStack=0;resizeParent=1;resizeParentMax=0;resizeLast=0;collapsible=1;marginBottom=0;whiteSpace=wrap;html=1;" parent="1" vertex="1">
          <mxGeometry x="316" y="545" width="196" height="80" as="geometry" />
        </mxCell>
        <mxCell id="g_AJwJvJLbkHC5g1WmJB-16" style="edgeStyle=orthogonalEdgeStyle;rounded=0;orthogonalLoop=1;jettySize=auto;html=1;exitX=0.5;exitY=0;exitDx=0;exitDy=0;entryX=1;entryY=0.5;entryDx=0;entryDy=0;dashed=1;" parent="1" source="hD7H4eB_J3QczMmHOgrV-7" target="hD7H4eB_J3QczMmHOgrV-2" edge="1">
          <mxGeometry relative="1" as="geometry" />
        </mxCell>
        <mxCell id="hD7H4eB_J3QczMmHOgrV-7" value="&lt;b&gt;&lt;i&gt;&amp;lt;&amp;lt;Modal&amp;gt;&amp;gt;&lt;/i&gt;&lt;br&gt;&lt;/b&gt;" style="swimlane;fontStyle=0;childLayout=stackLayout;horizontal=1;startSize=30;horizontalStack=0;resizeParent=1;resizeParentMax=0;resizeLast=0;collapsible=1;marginBottom=0;whiteSpace=wrap;html=1;" parent="1" vertex="1">
          <mxGeometry x="1270" y="545" width="190" height="80" as="geometry" />
        </mxCell>
        <mxCell id="hD7H4eB_J3QczMmHOgrV-9" value="+ BackDrop : CanvasGroup" style="text;strokeColor=none;fillColor=none;align=left;verticalAlign=middle;spacingLeft=4;spacingRight=4;overflow=hidden;points=[[0,0.5],[1,0.5]];portConstraint=eastwest;rotatable=0;whiteSpace=wrap;html=1;" parent="hD7H4eB_J3QczMmHOgrV-7" vertex="1">
          <mxGeometry y="30" width="190" height="50" as="geometry" />
        </mxCell>
        <mxCell id="hD7H4eB_J3QczMmHOgrV-16" value="&lt;b&gt;&lt;i&gt;&amp;lt;&amp;lt;IStartable&amp;gt;&amp;gt;&lt;/i&gt;&lt;br&gt;&lt;/b&gt;" style="swimlane;fontStyle=0;childLayout=stackLayout;horizontal=1;startSize=30;horizontalStack=0;resizeParent=1;resizeParentMax=0;resizeLast=0;collapsible=1;marginBottom=0;whiteSpace=wrap;html=1;" parent="1" vertex="1">
          <mxGeometry x="620" y="875" width="190" height="80" as="geometry" />
        </mxCell>
        <mxCell id="hD7H4eB_J3QczMmHOgrV-17" value="+ BackDrop : CanvasGroup" style="text;strokeColor=none;fillColor=none;align=left;verticalAlign=middle;spacingLeft=4;spacingRight=4;overflow=hidden;points=[[0,0.5],[1,0.5]];portConstraint=eastwest;rotatable=0;whiteSpace=wrap;html=1;" parent="hD7H4eB_J3QczMmHOgrV-16" vertex="1">
          <mxGeometry y="30" width="190" height="50" as="geometry" />
        </mxCell>
        <mxCell id="g_AJwJvJLbkHC5g1WmJB-5" style="edgeStyle=orthogonalEdgeStyle;rounded=0;orthogonalLoop=1;jettySize=auto;html=1;exitX=0.5;exitY=0;exitDx=0;exitDy=0;" parent="1" source="g_AJwJvJLbkHC5g1WmJB-4" target="hD7H4eB_J3QczMmHOgrV-7" edge="1">
          <mxGeometry relative="1" as="geometry" />
        </mxCell>
        <mxCell id="g_AJwJvJLbkHC5g1WmJB-12" style="edgeStyle=orthogonalEdgeStyle;rounded=0;orthogonalLoop=1;jettySize=auto;html=1;exitX=1;exitY=0.5;exitDx=0;exitDy=0;entryX=0.5;entryY=1;entryDx=0;entryDy=0;" parent="1" source="g_AJwJvJLbkHC5g1WmJB-4" target="g_AJwJvJLbkHC5g1WmJB-6" edge="1">
          <mxGeometry relative="1" as="geometry" />
        </mxCell>
        <mxCell id="g_AJwJvJLbkHC5g1WmJB-13" style="edgeStyle=orthogonalEdgeStyle;rounded=0;orthogonalLoop=1;jettySize=auto;html=1;exitX=1;exitY=0.5;exitDx=0;exitDy=0;entryX=0.5;entryY=0;entryDx=0;entryDy=0;" parent="1" source="g_AJwJvJLbkHC5g1WmJB-4" target="g_AJwJvJLbkHC5g1WmJB-7" edge="1">
          <mxGeometry relative="1" as="geometry" />
        </mxCell>
        <mxCell id="g_AJwJvJLbkHC5g1WmJB-4" value="&lt;p style=&quot;margin:0px;margin-top:4px;text-align:center;&quot;&gt;&lt;b style=&quot;border-color: var(--border-color);&quot;&gt;CreateMultiRoomModalContext&lt;/b&gt;&lt;br&gt;&lt;/p&gt;&lt;hr size=&quot;1&quot;&gt;&lt;p style=&quot;margin:0px;margin-left:4px;&quot;&gt;+ View : UIView&lt;br&gt;&lt;/p&gt;&lt;hr size=&quot;1&quot;&gt;&lt;p style=&quot;margin:0px;margin-left:4px;&quot;&gt;# Configure&lt;span style=&quot;background-color: initial;&quot;&gt;() : void&lt;/span&gt;&lt;/p&gt;&lt;p style=&quot;margin:0px;margin-left:4px;&quot;&gt;&lt;span style=&quot;background-color: initial;&quot;&gt;- UIModel : Bulder&lt;/span&gt;&lt;/p&gt;&lt;p style=&quot;margin:0px;margin-left:4px;&quot;&gt;&lt;span style=&quot;background-color: initial;&quot;&gt;-&amp;nbsp;&lt;/span&gt;MultiRoomListModel : Builder&lt;/p&gt;&lt;p style=&quot;margin:0px;margin-left:4px;&quot;&gt;- view : Builder&lt;/p&gt;&lt;p style=&quot;margin:0px;margin-left:4px;&quot;&gt;-&amp;nbsp;MultiplayRoomLobbyPagePresenter : EntryPoint&lt;/p&gt;" style="verticalAlign=top;align=left;overflow=fill;fontSize=12;fontFamily=Helvetica;html=1;whiteSpace=wrap;" parent="1" vertex="1">
          <mxGeometry x="1215" y="805" width="300" height="135" as="geometry" />
        </mxCell>
        <mxCell id="g_AJwJvJLbkHC5g1WmJB-6" value="&lt;p style=&quot;margin:0px;margin-top:4px;text-align:center;&quot;&gt;&lt;b&gt;UIModel&lt;/b&gt;&lt;/p&gt;&lt;hr size=&quot;1&quot;&gt;&lt;p style=&quot;margin:0px;margin-left:4px;&quot;&gt;&lt;/p&gt;&lt;p style=&quot;margin:0px;margin-left:4px;&quot;&gt;+ RoomIndex : IntReactiveProperty&lt;/p&gt;&lt;p style=&quot;border-color: var(--border-color); margin: 0px 0px 0px 4px;&quot;&gt;&lt;br style=&quot;border-color: var(--border-color);&quot;&gt;&lt;/p&gt;&lt;p style=&quot;border-color: var(--border-color); margin: 0px 0px 0px 4px;&quot;&gt;&lt;br&gt;&lt;/p&gt;&lt;p style=&quot;margin:0px;margin-left:4px;&quot;&gt;&lt;br&gt;&lt;/p&gt;" style="verticalAlign=top;align=left;overflow=fill;fontSize=12;fontFamily=Helvetica;html=1;whiteSpace=wrap;" parent="1" vertex="1">
          <mxGeometry x="1590" y="755" width="300" height="50" as="geometry" />
        </mxCell>
        <mxCell id="g_AJwJvJLbkHC5g1WmJB-7" value="&lt;p style=&quot;margin:0px;margin-top:4px;text-align:center;&quot;&gt;&lt;b&gt;UIModel&lt;/b&gt;&lt;/p&gt;&lt;hr size=&quot;1&quot;&gt;&lt;p style=&quot;margin:0px;margin-left:4px;&quot;&gt;&lt;/p&gt;&lt;p style=&quot;margin:0px;margin-left:4px;&quot;&gt;+&amp;nbsp;DropdownContent :&amp;nbsp;TMP_Dropdown[]&lt;/p&gt;&lt;p style=&quot;border-color: var(--border-color); margin: 0px 0px 0px 4px;&quot;&gt;+&amp;nbsp;CancelButton&amp;nbsp;&lt;span style=&quot;background-color: initial;&quot;&gt;:&amp;nbsp;&lt;/span&gt;Button&lt;/p&gt;&lt;p style=&quot;border-color: var(--border-color); margin: 0px 0px 0px 4px;&quot;&gt;+&amp;nbsp;CheckButton :&amp;nbsp;Button&lt;/p&gt;&lt;p style=&quot;border-color: var(--border-color); margin: 0px 0px 0px 4px;&quot;&gt;&lt;br style=&quot;border-color: var(--border-color);&quot;&gt;&lt;/p&gt;&lt;div style=&quot;border-color: var(--border-color);&quot;&gt;&lt;br style=&quot;border-color: var(--border-color);&quot;&gt;&lt;/div&gt;&lt;div&gt;&lt;br&gt;&lt;/div&gt;&lt;p style=&quot;border-color: var(--border-color); margin: 0px 0px 0px 4px;&quot;&gt;&lt;br style=&quot;border-color: var(--border-color);&quot;&gt;&lt;/p&gt;&lt;p style=&quot;margin:0px;margin-left:4px;&quot;&gt;&lt;br&gt;&lt;/p&gt;" style="verticalAlign=top;align=left;overflow=fill;fontSize=12;fontFamily=Helvetica;html=1;whiteSpace=wrap;" parent="1" vertex="1">
          <mxGeometry x="1590" y="930" width="300" height="80" as="geometry" />
        </mxCell>
        <mxCell id="g_AJwJvJLbkHC5g1WmJB-10" style="edgeStyle=orthogonalEdgeStyle;rounded=0;orthogonalLoop=1;jettySize=auto;html=1;endArrow=circlePlus;endFill=0;entryX=1;entryY=0.5;entryDx=0;entryDy=0;" parent="1" target="g_AJwJvJLbkHC5g1WmJB-4" edge="1">
          <mxGeometry relative="1" as="geometry">
            <mxPoint x="1520" y="873" as="sourcePoint" />
            <mxPoint x="1530" y="970" as="targetPoint" />
          </mxGeometry>
        </mxCell>
        <mxCell id="g_AJwJvJLbkHC5g1WmJB-15" style="edgeStyle=orthogonalEdgeStyle;rounded=0;orthogonalLoop=1;jettySize=auto;html=1;exitX=0.5;exitY=0;exitDx=0;exitDy=0;" parent="1" source="g_AJwJvJLbkHC5g1WmJB-14" target="g_AJwJvJLbkHC5g1WmJB-4" edge="1">
          <mxGeometry relative="1" as="geometry" />
        </mxCell>
        <mxCell id="g_AJwJvJLbkHC5g1WmJB-14" value="&lt;p style=&quot;margin:0px;margin-top:4px;text-align:center;&quot;&gt;&lt;b&gt;CreateMultiplayRoomModalPresenter&lt;/b&gt;&lt;/p&gt;&lt;hr size=&quot;1&quot;&gt;&lt;p style=&quot;margin:0px;margin-left:4px;&quot;&gt;&lt;span style=&quot;background-color: initial;&quot;&gt;- view : CreateMultiplayRoomModalContext.UIView&lt;br&gt;&lt;/span&gt;&lt;/p&gt;&lt;p style=&quot;margin:0px;margin-left:4px;&quot;&gt;&lt;span style=&quot;background-color: initial;&quot;&gt;- roomListModel : MultiRoomListModel&lt;/span&gt;&lt;/p&gt;&lt;p style=&quot;margin:0px;margin-left:4px;&quot;&gt;- lobbyPageView : MultiplayRoomLobbyPageContext.UIView&lt;/p&gt;&lt;p style=&quot;margin:0px;margin-left:4px;&quot;&gt;- lobbyPageModel : MultiplayRoomLobbyPageContext.UIModel&lt;/p&gt;&lt;p style=&quot;margin:0px;margin-left:4px;&quot;&gt;- prefabModel : MultiRoomPrefabModel&lt;/p&gt;&lt;p style=&quot;margin:0px;margin-left:4px;&quot;&gt;- presetModel : VariableSpacePresetModel&lt;/p&gt;&lt;hr size=&quot;1&quot;&gt;&lt;p style=&quot;margin:0px;margin-left:4px;&quot;&gt;- IStartable.Start() : void&lt;/p&gt;&lt;p style=&quot;margin:0px;margin-left:4px;&quot;&gt;- InitializeView() : void&lt;/p&gt;&lt;p style=&quot;margin:0px;margin-left:4px;&quot;&gt;- InitRoomInfo() : void&lt;/p&gt;" style="verticalAlign=top;align=left;overflow=fill;fontSize=12;fontFamily=Helvetica;html=1;whiteSpace=wrap;" parent="1" vertex="1">
          <mxGeometry x="1129" y="1100" width="472" height="180" as="geometry" />
        </mxCell>
        <mxCell id="TPcAh-cGILqg7S0p6R_G-7" style="edgeStyle=orthogonalEdgeStyle;rounded=0;orthogonalLoop=1;jettySize=auto;html=1;exitX=0.5;exitY=0;exitDx=0;exitDy=0;entryX=0;entryY=0.5;entryDx=0;entryDy=0;" edge="1" parent="1" source="TPcAh-cGILqg7S0p6R_G-2" target="20aFcJe1FkNS2ckluplD-28">
          <mxGeometry relative="1" as="geometry" />
        </mxCell>
        <mxCell id="TPcAh-cGILqg7S0p6R_G-2" value="&lt;b&gt;MainContext&lt;/b&gt;" style="swimlane;fontStyle=0;childLayout=stackLayout;horizontal=1;startSize=30;horizontalStack=0;resizeParent=1;resizeParentMax=0;resizeLast=0;collapsible=1;marginBottom=0;whiteSpace=wrap;html=1;" vertex="1" parent="1">
          <mxGeometry x="-549" y="550" width="270" height="90" as="geometry">
            <mxRectangle x="299" y="80" width="110" height="30" as="alternateBounds" />
          </mxGeometry>
        </mxCell>
        <mxCell id="TPcAh-cGILqg7S0p6R_G-3" value="+ PresetModel:&amp;nbsp;VariableSpacePresetModel&lt;br&gt;" style="text;strokeColor=none;fillColor=none;align=left;verticalAlign=middle;spacingLeft=4;spacingRight=4;overflow=hidden;points=[[0,0.5],[1,0.5]];portConstraint=eastwest;rotatable=0;whiteSpace=wrap;html=1;" vertex="1" parent="TPcAh-cGILqg7S0p6R_G-2">
          <mxGeometry y="30" width="270" height="30" as="geometry" />
        </mxCell>
        <mxCell id="TPcAh-cGILqg7S0p6R_G-4" value="+&amp;nbsp;PrefabModel&lt;span style=&quot;background-color: initial;&quot;&gt;&amp;nbsp;: MultiRoomPrefabModel&amp;nbsp;&lt;/span&gt;" style="text;strokeColor=none;fillColor=none;align=left;verticalAlign=middle;spacingLeft=4;spacingRight=4;overflow=hidden;points=[[0,0.5],[1,0.5]];portConstraint=eastwest;rotatable=0;whiteSpace=wrap;html=1;" vertex="1" parent="TPcAh-cGILqg7S0p6R_G-2">
          <mxGeometry y="60" width="270" height="30" as="geometry" />
        </mxCell>
        <mxCell id="TPcAh-cGILqg7S0p6R_G-9" style="edgeStyle=orthogonalEdgeStyle;rounded=0;orthogonalLoop=1;jettySize=auto;html=1;exitX=0.5;exitY=0;exitDx=0;exitDy=0;entryX=0.5;entryY=1;entryDx=0;entryDy=0;" edge="1" parent="1" source="TPcAh-cGILqg7S0p6R_G-6" target="hD7H4eB_J3QczMmHOgrV-5">
          <mxGeometry relative="1" as="geometry" />
        </mxCell>
        <mxCell id="TPcAh-cGILqg7S0p6R_G-17" style="edgeStyle=orthogonalEdgeStyle;rounded=0;orthogonalLoop=1;jettySize=auto;html=1;exitX=0;exitY=0.5;exitDx=0;exitDy=0;entryX=0.5;entryY=0;entryDx=0;entryDy=0;" edge="1" parent="1" source="TPcAh-cGILqg7S0p6R_G-6" target="TPcAh-cGILqg7S0p6R_G-11">
          <mxGeometry relative="1" as="geometry" />
        </mxCell>
        <mxCell id="TPcAh-cGILqg7S0p6R_G-6" value="&lt;p style=&quot;margin:0px;margin-top:4px;text-align:center;&quot;&gt;&lt;b&gt;AdminSheetContext&lt;/b&gt;&lt;/p&gt;&lt;hr size=&quot;1&quot;&gt;&lt;p style=&quot;margin:0px;margin-left:4px;&quot;&gt;+&amp;nbsp;View :&amp;nbsp;UIView&lt;/p&gt;&lt;hr size=&quot;1&quot;&gt;&lt;p style=&quot;margin:0px;margin-left:4px;&quot;&gt;# Configure&lt;span style=&quot;background-color: initial;&quot;&gt;() : void&lt;/span&gt;&lt;/p&gt;&lt;p style=&quot;margin:0px;margin-left:4px;&quot;&gt;&lt;span style=&quot;background-color: initial;&quot;&gt;- UIModel : Bulder&lt;/span&gt;&lt;/p&gt;&lt;p style=&quot;margin:0px;margin-left:4px;&quot;&gt;&lt;span style=&quot;background-color: initial;&quot;&gt;-&amp;nbsp;UIView&lt;/span&gt;&lt;span style=&quot;background-color: initial;&quot;&gt;: Builder&lt;/span&gt;&lt;br&gt;&lt;/p&gt;&lt;p style=&quot;margin:0px;margin-left:4px;&quot;&gt;-&amp;nbsp;AdminSheetPresenter&amp;nbsp;&lt;span style=&quot;background-color: initial;&quot;&gt;: EntryPoint&lt;/span&gt;&lt;/p&gt;" style="verticalAlign=top;align=left;overflow=fill;fontSize=12;fontFamily=Helvetica;html=1;whiteSpace=wrap;" vertex="1" parent="1">
          <mxGeometry x="-922" y="770" width="300" height="135" as="geometry" />
        </mxCell>
        <mxCell id="TPcAh-cGILqg7S0p6R_G-10" value="&lt;p style=&quot;margin:0px;margin-top:4px;text-align:center;&quot;&gt;&lt;b style=&quot;border-color: var(--border-color);&quot;&gt;MainSheetUIModel&lt;/b&gt;&lt;/p&gt;&lt;hr size=&quot;1&quot;&gt;&lt;p style=&quot;margin:0px;margin-left:4px;&quot;&gt;&lt;/p&gt;&lt;p style=&quot;margin:0px;margin-left:4px;&quot;&gt;+&amp;nbsp;IsFieldOpen&lt;span style=&quot;background-color: initial;&quot;&gt;: BoolReactiveProperty&lt;/span&gt;&lt;/p&gt;&lt;p style=&quot;margin:0px;margin-left:4px;&quot;&gt;+&amp;nbsp;PreviousScenarioIndex&amp;nbsp;&lt;span style=&quot;background-color: initial;&quot;&gt;:&amp;nbsp;&lt;/span&gt;IntReactiveProperty&lt;/p&gt;&lt;p style=&quot;border-color: var(--border-color); margin: 0px 0px 0px 4px;&quot;&gt;+&amp;nbsp;CurrentScenarioIndex&amp;nbsp;&lt;span style=&quot;background-color: initial;&quot;&gt;: IntReactiveProperty&lt;/span&gt;&lt;/p&gt;&lt;p style=&quot;border-color: var(--border-color); margin: 0px 0px 0px 4px;&quot;&gt;+&amp;nbsp;CurrentContentIndex&amp;nbsp;&lt;span style=&quot;background-color: initial;&quot;&gt;: IntReactiveProperty&lt;/span&gt;&lt;/p&gt;&lt;p style=&quot;border-color: var(--border-color); margin: 0px 0px 0px 4px;&quot;&gt;+&amp;nbsp;CurrentTabIndex&lt;span style=&quot;background-color: initial;&quot;&gt;&amp;nbsp;: IntReactiveProperty&lt;/span&gt;&lt;/p&gt;&lt;p style=&quot;border-color: var(--border-color); margin: 0px 0px 0px 4px;&quot;&gt;&lt;br&gt;&lt;/p&gt;&lt;p style=&quot;margin:0px;margin-left:4px;&quot;&gt;&lt;br&gt;&lt;/p&gt;" style="verticalAlign=top;align=left;overflow=fill;fontSize=12;fontFamily=Helvetica;html=1;whiteSpace=wrap;" vertex="1" parent="1">
          <mxGeometry x="-1350" y="660" width="300" height="110" as="geometry" />
        </mxCell>
        <mxCell id="TPcAh-cGILqg7S0p6R_G-11" value="&lt;p style=&quot;margin:0px;margin-top:4px;text-align:center;&quot;&gt;&lt;b&gt;MainSheetUIView&lt;/b&gt;&lt;/p&gt;&lt;hr size=&quot;1&quot;&gt;&lt;p style=&quot;margin:0px;margin-left:4px;&quot;&gt;&lt;/p&gt;&lt;p style=&quot;margin:0px;margin-left:4px;&quot;&gt;+ HomeButton&amp;nbsp;&lt;span style=&quot;background-color: initial;&quot;&gt;: Button&lt;/span&gt;&lt;/p&gt;&lt;p style=&quot;border-color: var(--border-color); margin: 0px 0px 0px 4px;&quot;&gt;+&amp;nbsp;FieldToggleButton&amp;nbsp;&lt;span style=&quot;background-color: initial;&quot;&gt;:&amp;nbsp;&lt;/span&gt;&lt;span style=&quot;background-color: initial;&quot;&gt;Button&lt;/span&gt;&lt;/p&gt;&lt;p style=&quot;border-color: var(--border-color); margin: 0px 0px 0px 4px;&quot;&gt;+&amp;nbsp;ZoomSlider&amp;nbsp;&lt;span style=&quot;background-color: initial;&quot;&gt;:&amp;nbsp;Slider&lt;/span&gt;&lt;/p&gt;&lt;p style=&quot;border-color: var(--border-color); margin: 0px 0px 0px 4px;&quot;&gt;+&amp;nbsp;UndoButton&amp;nbsp;&lt;span style=&quot;background-color: initial;&quot;&gt;: Button&lt;/span&gt;&lt;/p&gt;&lt;p style=&quot;border-color: var(--border-color); margin: 0px 0px 0px 4px;&quot;&gt;+&amp;nbsp;FieldOpenToggleImage&amp;nbsp;&lt;span style=&quot;background-color: initial;&quot;&gt;: GameObject&lt;/span&gt;&lt;/p&gt;&lt;p style=&quot;border-color: var(--border-color); margin: 0px 0px 0px 4px;&quot;&gt;+&amp;nbsp;FieldCloseToggleImage&amp;nbsp;&lt;span style=&quot;background-color: initial;&quot;&gt;:&amp;nbsp;&lt;/span&gt;&lt;span style=&quot;background-color: initial;&quot;&gt;GameObject&lt;/span&gt;&lt;/p&gt;&lt;div style=&quot;border-color: var(--border-color);&quot;&gt;&lt;p style=&quot;border-color: var(--border-color); margin: 0px 0px 0px 4px;&quot;&gt;+&amp;nbsp;FieldFolder&amp;nbsp;&lt;span style=&quot;background-color: initial;&quot;&gt;:&amp;nbsp;GameObject&lt;/span&gt;&lt;/p&gt;&lt;p style=&quot;border-color: var(--border-color); margin: 0px 0px 0px 4px;&quot;&gt;&lt;span style=&quot;background-color: initial;&quot;&gt;+&amp;nbsp;&lt;/span&gt;MissionFolder : Transform&lt;/p&gt;&lt;div style=&quot;border-color: var(--border-color);&quot;&gt;&amp;nbsp;+&amp;nbsp;TabFolder&lt;span style=&quot;background-color: initial;&quot;&gt;: Transform&lt;/span&gt;&lt;br&gt;&lt;/div&gt;&lt;/div&gt;&lt;div style=&quot;border-color: var(--border-color);&quot;&gt;&amp;nbsp;+&amp;nbsp;ResourceFolder&lt;span style=&quot;background-color: initial;&quot;&gt;: Transform&lt;/span&gt;&lt;br&gt;&lt;/div&gt;&lt;div&gt;&amp;nbsp;+&amp;nbsp;RequestFolder&lt;span style=&quot;background-color: initial;&quot;&gt;: Transform&lt;/span&gt;&lt;br&gt;&lt;/div&gt;&lt;p style=&quot;border-color: var(--border-color); margin: 0px 0px 0px 4px;&quot;&gt;&lt;br style=&quot;border-color: var(--border-color);&quot;&gt;&lt;/p&gt;&lt;p style=&quot;margin:0px;margin-left:4px;&quot;&gt;&lt;br&gt;&lt;/p&gt;" style="verticalAlign=top;align=left;overflow=fill;fontSize=12;fontFamily=Helvetica;html=1;whiteSpace=wrap;" vertex="1" parent="1">
          <mxGeometry x="-1350" y="890" width="300" height="200" as="geometry" />
        </mxCell>
        <mxCell id="TPcAh-cGILqg7S0p6R_G-12" style="edgeStyle=orthogonalEdgeStyle;rounded=0;orthogonalLoop=1;jettySize=auto;html=1;entryX=0.5;entryY=1;entryDx=0;entryDy=0;exitX=0;exitY=0.5;exitDx=0;exitDy=0;" edge="1" target="TPcAh-cGILqg7S0p6R_G-10" parent="1" source="TPcAh-cGILqg7S0p6R_G-6">
          <mxGeometry relative="1" as="geometry">
            <mxPoint x="-936" y="833" as="sourcePoint" />
          </mxGeometry>
        </mxCell>
        <mxCell id="TPcAh-cGILqg7S0p6R_G-13" style="edgeStyle=orthogonalEdgeStyle;rounded=0;orthogonalLoop=1;jettySize=auto;html=1;exitX=0.5;exitY=0;exitDx=0;exitDy=0;endArrow=circlePlus;endFill=0;entryX=0;entryY=0.5;entryDx=0;entryDy=0;" edge="1" source="TPcAh-cGILqg7S0p6R_G-11" parent="1" target="TPcAh-cGILqg7S0p6R_G-6">
          <mxGeometry relative="1" as="geometry">
            <mxPoint x="-970" y="880" as="targetPoint" />
          </mxGeometry>
        </mxCell>
      </root>
    </mxGraphModel>
  </diagram>
</mxfile>
